<?xml version="1.0" encoding="UTF-8"?>
<svg id="Layer_1" data-name="Layer 1" xmlns="http://www.w3.org/2000/svg" viewBox="0 0 303.55 288.09">
  <defs>
    <style>
      .cls-1 {
        fill: #3d0460;
      }
    </style>
  </defs>
  <path class="cls-1" d="M190.38,159.66v-60.2c0-2.83-2.3-5.13-5.13-5.13h-74.72c-2.83,0-5.13,2.3-5.13,5.13v60.2c0,2.83,2.3,5.13,5.13,5.13h74.72c2.83,0,5.13-2.3,5.13-5.13ZM109.8,159.66v-23.5l11.64-11.64c.19-.19.4-.21.52-.21s.33.03.52.21l2.51,2.51c.86.86,2.25.86,3.11,0,.86-.86.86-2.25,0-3.11l-2.51-2.51c-.97-.97-2.26-1.5-3.63-1.5s-2.66.53-3.63,1.5l-8.53,8.53v-30.47c0-.4.33-.73.73-.73h74.72c.4,0,.73.33.73.73v60.2c0,.4-.33.73-.73.73h-2.15l-27.4-27.4c-2-2-5.26-2-7.26,0l-5.63,5.63-7.71-7.71c-.86-.86-2.25-.86-3.11,0-.86.86-.86,2.25,0,3.11l8.23,8.23c.69.69,1.61,1.07,2.59,1.07s1.9-.38,2.59-1.07l6.15-6.15c.29-.29.75-.29,1.04,0l24.29,24.29h-66.35c-.4,0-.73-.33-.73-.73h0Z"/>
  <path class="cls-1" d="M205.14,176.43v-28.16c0-1.21-.98-2.2-2.2-2.2s-2.2.98-2.2,2.2v24.85c-3.68-2.18-7.98-3.44-12.56-3.44-12.59,0-23,9.46-24.53,21.64h-66.41c-1.21,0-2.2-.99-2.2-2.2v-113.57c0-1.21.99-2.2,2.2-2.2h101.3c1.21,0,2.2.99,2.2,2.2v61.76c0,1.21.98,2.2,2.2,2.2s2.2-.98,2.2-2.2v-61.76c0-3.64-2.96-6.6-6.6-6.6h-101.3c-3.64,0-6.6,2.96-6.6,6.6v113.57c0,3.64,2.96,6.6,6.6,6.6h66.25c.24,4.54,1.7,8.88,4.26,12.64.69,1,2.05,1.26,3.06.57,1-.69,1.26-2.05.57-3.06-2.31-3.38-3.54-7.35-3.54-11.46,0-11.21,9.12-20.33,20.33-20.33s20.33,9.12,20.33,20.33-9.12,20.33-20.33,20.33c-3.34,0-6.66-.83-9.58-2.39-1.07-.57-2.4-.17-2.98.9-.57,1.07-.17,2.4.9,2.98,3.56,1.91,7.59,2.91,11.66,2.91,13.64,0,24.73-11.09,24.73-24.73,0-7.08-2.99-13.46-7.77-17.98h0Z"/>
  <path class="cls-1" d="M188.18,183.09c-1.21,0-2.2.98-2.2,2.2v6.98h-6.98c-1.21,0-2.2.98-2.2,2.2s.98,2.2,2.2,2.2h6.98v6.98c0,1.21.98,2.2,2.2,2.2s2.2-.98,2.2-2.2v-6.98h6.98c1.21,0,2.2-.98,2.2-2.2s-.98-2.2-2.2-2.2h-6.98v-6.98c0-1.21-.98-2.2-2.2-2.2Z"/>
  <circle class="cls-1" cx="110.68" cy="175.1" r="3.08"/>
  <circle class="cls-1" cx="121.57" cy="175.1" r="3.08"/>
  <circle class="cls-1" cx="132.46" cy="175.1" r="3.08"/>
  <path class="cls-1" d="M156.34,87.23c1.21,0,2.2-.98,2.2-2.2s-.98-2.2-2.2-2.2h-9.53c-1.21,0-2.2.98-2.2,2.2s.98,2.2,2.2,2.2h9.53Z"/>
  <path class="cls-1" d="M135.53,87.23c1.21,0,2.2-.98,2.2-2.2s-.98-2.2-2.2-2.2h-26.02c-1.21,0-2.2.98-2.2,2.2s.98,2.2,2.2,2.2h26.02Z"/>
  <path class="cls-1" d="M166.52,125.18c4.29,0,7.79-3.49,7.79-7.79s-3.49-7.79-7.79-7.79-7.79,3.49-7.79,7.79,3.49,7.79,7.79,7.79ZM166.52,114c1.87,0,3.39,1.52,3.39,3.39s-1.52,3.39-3.39,3.39-3.39-1.52-3.39-3.39c0-1.87,1.52-3.39,3.39-3.39Z"/>
</svg>