<?xml version="1.0" encoding="UTF-8"?>
<svg id="Layer_1" data-name="Layer 1" xmlns="http://www.w3.org/2000/svg" viewBox="0 0 303.55 288.09">
  <defs>
    <style>
      .cls-1 {
        fill: #3d0460;
      }
    </style>
  </defs>
  <g id="layer1">
    <path id="circle2859" class="cls-1" d="M155.23,68.95c-23.78,0-43.17,19.46-43.17,43.24,0,14.54,7.27,27.41,18.34,35.25-25.82,10.34-44.13,35.59-44.13,65.04.08,3.76,3.2,6.74,6.96,6.66,3.64-.08,6.58-3.01,6.66-6.66,0-31.26,25.2-56.45,56.46-56.45,10.91,0,21.04,3.11,29.66,8.45,3.21,1.98,7.42.99,9.4-2.22,1.98-3.21.99-7.42-2.22-9.4-3.88-2.4-8.1-4.29-12.45-5.91,10.71-7.87,17.73-20.51,17.73-34.76,0-23.78-19.46-43.24-43.24-43.24h0ZM155.23,82.59c16.42,0,29.62,13.19,29.62,29.61s-13.2,29.55-29.62,29.55-29.55-13.14-29.55-29.55c0-16.42,13.14-29.61,29.55-29.61ZM224.15,164.32c-2.25.06-4.32,1.23-5.53,3.13l-23.48,35.18-14.72-9.86c-3.14-2.1-7.39-1.25-9.48,1.89-2.1,3.14-1.25,7.39,1.89,9.48h0l20.47,13.62c3.13,2.08,7.36,1.22,9.44-1.91h0s27.25-40.88,27.25-40.88c2.12-3.1,1.33-7.34-1.77-9.47-1.19-.82-2.62-1.23-4.07-1.19Z" vector-effect="none"/>
  </g>
</svg>